<?xml version="1.0" encoding="UTF-8"?>
<!-- Generator: Adobe Illustrator 25.2.1, SVG Export Plug-In . SVG Version: 6.00 Build 0)  -->
<svg version="1.1" id="Layer_1" xmlns="http://www.w3.org/2000/svg" xmlns:xlink="http://www.w3.org/1999/xlink" x="0px" y="0px" viewBox="0 0 96.63 36.28" style="enable-background:new 0 0 96.63 36.28;" xml:space="preserve">
<style type="text/css">
	.st0{fill:#FFFFFF;}
</style>
<path class="st0" d="M80.45,35.44c-3,0-5.7-1.16-8.03-3.37c-1.29-1.23-2.15-2.88-2.7-5.09c-0.37-1.35-0.49-2.76-0.55-3.92  c-0.12-1.47-0.25-2.94-0.37-4.17V18.7c-0.12-1.1-0.18-2.21-0.37-3.31c-0.12-1.04-0.31-2.15-0.43-3.19l-0.18-1.16  c0-0.25-0.06-0.43-0.12-0.67c-0.06-0.55-0.18-1.04-0.18-1.59c-0.12-1.59,0.86-2.94,2.33-3.49c0.55-0.18,1.16-0.25,1.72-0.12  c0.06-1.1,0.67-2.15,1.66-2.76c1.23-0.74,2.7-0.67,3.92,0.18c0.74,0.55,1.16,1.29,1.35,2.33c0.31,1.59,0.55,3.25,0.86,4.84  l0.06,0.49l0.92-4.66c0.12-0.74,0.31-1.47,0.43-2.21c0.31-1.72,1.72-2.94,3.43-2.94c1.78,0,3.25,1.35,3.43,3.06  c0,0.06,0,0.06,0,0.12c0.55-0.06,1.1-0.06,1.65,0.12c1.72,0.61,2.64,2.39,2.27,4.23l-0.37,1.72c-0.43,2.08-0.86,4.23-1.23,6.31  c0.61-0.74,1.41-1.23,2.27-1.35c0.92-0.12,1.84,0.12,2.57,0.67c1.1,0.86,1.65,2.33,1.29,3.68c-0.37,1.35-0.98,2.57-1.53,3.74  c-0.12,0.31-0.31,0.61-0.43,0.92c-1.29,2.7-2.64,5.27-4.54,7.48c-1.84,2.08-3.8,3.37-5.95,3.92C82.53,35.31,81.49,35.44,80.45,35.44  z M70.95,7.18c-0.12,0-0.31,0-0.43,0.06c-0.67,0.25-1.04,0.74-0.98,1.41c0,0.43,0.12,0.92,0.18,1.35c0.06,0.25,0.06,0.49,0.12,0.74  l0.18,1.16c0.12,1.04,0.31,2.15,0.43,3.25c0.12,1.1,0.25,2.27,0.37,3.37v0.18c0.12,1.23,0.25,2.7,0.37,4.23  c0.06,1.04,0.25,2.33,0.55,3.56c0.43,1.84,1.16,3.13,2.15,4.11c2.64,2.51,5.76,3.37,9.38,2.45c1.78-0.43,3.37-1.53,4.9-3.31  c1.78-2.02,3-4.47,4.23-6.99c0.12-0.31,0.31-0.61,0.49-0.92c0.55-1.1,1.1-2.21,1.41-3.31c0.12-0.55-0.06-1.16-0.49-1.53  c-0.31-0.25-0.67-0.37-1.04-0.31c-0.37,0.06-0.67,0.25-0.98,0.61l-2.64,5.03c-0.25,0.43-0.74,0.67-1.23,0.49  c-0.49-0.12-0.8-0.61-0.74-1.1c0.18-1.59,0.43-3.25,0.8-5.46c0.43-2.33,0.92-4.66,1.35-6.93l0.37-1.72c0.18-0.86-0.18-1.59-0.92-1.9  c-0.49-0.18-1.04,0-1.41,0.37c-0.31,0.31-0.8,0.37-1.23,0.18c-0.37-0.18-0.61-0.61-0.55-1.1c0-0.06,0-0.12,0-0.18  c0-0.18,0.06-0.31,0.06-0.49c0.06-0.31,0.06-0.55,0.06-0.74c-0.06-0.67-0.67-1.23-1.35-1.23c-0.74,0-1.29,0.49-1.41,1.23  c-0.12,0.74-0.31,1.53-0.43,2.27l-2.02,10.05c-0.12,0.49-0.55,0.86-1.04,0.86c-0.49,0-0.92-0.37-0.98-0.86  c-0.25-1.23-0.43-2.51-0.67-3.74l-0.37-2.15c-0.31-1.59-0.55-3.25-0.86-4.84c-0.12-0.61-0.31-0.86-0.55-1.04  c-0.49-0.37-1.1-0.43-1.59-0.12c-0.49,0.31-0.74,0.92-0.67,1.53c0.06,0.37,0.12,0.8,0.18,1.16c0.06,0.49-0.18,0.92-0.61,1.1  c-0.43,0.18-0.92,0.06-1.23-0.25C71.75,7.36,71.32,7.18,70.95,7.18z"/>
<path class="st0" d="M62.98,28.63c0-0.12-0.06-0.18-0.18-0.18c-3,0.18-5.58-0.06-5.58-2.02v-7.85c0-0.25,0.18-0.49,0.49-0.49h3.74  c0.06,0,0.18-0.06,0.18-0.18l-0.86-6.44c0-0.06-0.06-0.18-0.18-0.18h-2.94c-0.25,0-0.49-0.18-0.49-0.49V6.93  c0-0.12-0.12-0.18-0.18-0.18l-6.74-1.1c-0.06,0-0.12,0.06-0.12,0.18v5.09c0,0.18-0.12,0.31-0.31,0.31l-9.93,0.06  c-0.06,0-0.18,0.06-0.18,0.18v0.37c0,0.12-0.12,0.18-0.18,0.12c-2.15-0.92-4.6-1.29-7.23-0.8c-4.96,0.92-8.89,4.9-9.68,9.87  c-0.31,1.84-0.18,3.56,0.25,5.21c0.37-0.06,0.67-0.12,1.04-0.12c3.19,0,5.76,2.57,5.76,5.76c0,0.74-0.12,1.47-0.43,2.15  c1.59,0.8,3.43,1.23,5.33,1.23c1.72,0,3.43-0.37,4.9-1.04c0.12-0.06,0.18,0,0.18,0.12v0.43c0,0.06,0.06,0.12,0.12,0.12h6.74  c0.06,0,0.12-0.06,0.12-0.12V18.27c0-0.06,0.06-0.12,0.12-0.12h2.76c0.25,0,0.49,0.18,0.49,0.49v7.85c0,6.87,4.23,9.32,13.36,8.46  c0.06,0,0.12-0.06,0.12-0.18L62.98,28.63z M34.66,28.38c-2.82,0-5.15-2.27-5.15-5.15c0-2.82,2.27-5.15,5.15-5.15  c2.88,0,5.15,2.27,5.15,5.15S37.48,28.38,34.66,28.38z"/>
<path class="st0" d="M24,35.31c1.86,0,3.37-1.51,3.37-3.37c0-1.86-1.51-3.37-3.37-3.37s-3.37,1.51-3.37,3.37  C20.63,33.8,22.14,35.31,24,35.31z"/>
<path class="st0" d="M29.33,2.34h-7.85c-0.12,0-0.25,0.06-0.31,0.18l-5.88,11.89c-0.12,0.25-0.49,0.25-0.61,0L8.86,2.58  C8.79,2.46,8.67,2.4,8.55,2.4H0.76c-0.25,0-0.43,0.25-0.31,0.49l10.73,19.74c0,0.06,0.06,0.12,0.06,0.18v12.26  c0,0.18,0.12,0.31,0.31,0.31h6.87c0.18,0,0.31-0.12,0.31-0.31V22.81c0-0.06,0-0.12,0.06-0.18l10.79-19.8  C29.7,2.64,29.57,2.34,29.33,2.34z"/>
</svg>